<?xml version="1.0" encoding="UTF-8" standalone="no"?><!DOCTYPE svg PUBLIC "-//W3C//DTD SVG 1.1//EN" "http://www.w3.org/Graphics/SVG/1.1/DTD/svg11.dtd"><svg width="100%" height="100%" viewBox="0 0 1440 1440" version="1.1" xmlns="http://www.w3.org/2000/svg" xmlns:xlink="http://www.w3.org/1999/xlink" xml:space="preserve" xmlns:serif="http://www.serif.com/" style="fill-rule:evenodd;clip-rule:evenodd;stroke-linecap:round;stroke-linejoin:round;stroke-miterlimit:1.5;"><g><g><path d="M289.522,402.515c-42.378,-16.855 -72.367,-58.259 -72.367,-106.613c-0,-63.296 51.389,-114.685 114.685,-114.685c48.508,0 90.023,30.182 106.774,72.774" style="fill:none;stroke:#000;stroke-width:110px;"/><path d="M1002.22,251.923c17.266,-41.498 58.217,-70.706 105.937,-70.706c63.296,0 114.685,51.389 114.685,114.685c0,48.354 -29.989,89.758 -72.367,106.613" style="fill:none;stroke:#000;stroke-width:100px;"/></g><path d="M293.339,554.563c-0,-155.411 132.444,-286.488 312.639,-326.074c36.3,-7.975 74.538,-12.237 114.022,-12.237c235.481,-0 426.661,151.592 426.661,338.311" style="fill:none;stroke:#000;stroke-width:110px;"/><path d="M829.208,633.182c-0,61.807 64.714,99.026 126.521,99.026c206.182,-0 266.104,146.962 266.104,273.947c0,126.986 -92.191,252.628 -256.893,252.628c-91.82,-0 -153.133,-40.042 -244.94,-41.626c-91.807,1.584 -153.12,41.626 -244.94,41.626c-164.702,-0 -256.893,-125.642 -256.893,-252.628c-0,-126.985 59.922,-273.947 266.104,-273.947c61.807,-0 126.521,-37.219 126.521,-99.026" style="fill:none;stroke:#000;stroke-width:110px;"/><g><path d="M459.401,513.8c10.954,-22.815 35.133,-42.842 66.516,-52.086c30.252,-8.912 60.311,-5.773 81.762,6.319" style="fill:#fff;stroke:#000;stroke-width:110px;"/><path d="M980.599,513.8c-10.954,-22.815 -35.133,-42.842 -66.516,-52.086c-30.252,-8.912 -60.311,-5.773 -81.762,6.319" style="fill:#fff;stroke:#000;stroke-width:110px;"/></g><g><circle cx="463.033" cy="953.414" r="82.649" style="fill:none;stroke:#000;stroke-width:110px;"/><circle cx="976.967" cy="953.414" r="82.649" style="fill:none;stroke:#000;stroke-width:110px;"/></g></g></svg>