<svg width="32" height="32" viewBox="0 0 32 32" fill="none" xmlns="http://www.w3.org/2000/svg">
<path fill-rule="evenodd" clip-rule="evenodd" d="M6.92733 4.17468C5.85362 4.17468 4.98116 5.04714 4.98116 6.12086C4.98116 6.93909 5.48831 7.64352 6.20981 7.93047C6.74477 8.14322 7.00596 8.74937 6.79321 9.28432C6.58045 9.81928 5.97431 10.0805 5.43935 9.86772C3.9522 9.27627 2.89632 7.82274 2.89632 6.12086C2.89632 3.89572 4.70219 2.08984 6.92733 2.08984C8.63467 2.08984 10.092 3.15251 10.6798 4.64716C10.8905 5.18293 10.627 5.78807 10.0913 5.99879C9.55551 6.2095 8.95036 5.946 8.73965 5.41023C8.45446 4.68511 7.74815 4.17468 6.92733 4.17468Z" fill="black"/>
<path fill-rule="evenodd" clip-rule="evenodd" d="M25.0729 4.17468C24.2654 4.17468 23.5688 4.66849 23.2747 5.37527C23.0536 5.90682 22.4434 6.15844 21.9119 5.93728C21.3803 5.71613 21.1287 5.10595 21.3498 4.57441C21.9556 3.11835 23.3933 2.08984 25.0729 2.08984C27.298 2.08984 29.1039 3.89572 29.1039 6.12086C29.1039 7.82274 28.048 9.27627 26.5609 9.86772C26.0259 10.0805 25.4198 9.81928 25.207 9.28432C24.9943 8.74937 25.2554 8.14322 25.7904 7.93047C26.5119 7.64352 27.0191 6.93909 27.0191 6.12086C27.0191 5.04714 26.1466 4.17468 25.0729 4.17468Z" fill="black"/>
<path fill-rule="evenodd" clip-rule="evenodd" d="M15.9999 4.56437C15.1402 4.56437 14.3097 4.66578 13.5234 4.85452L13.2806 3.843L13.5234 4.85452C9.58635 5.79961 6.86477 8.87357 6.86477 12.3402C6.86477 12.9147 6.39904 13.3804 5.82453 13.3804C5.25002 13.3804 4.78429 12.9147 4.78429 12.3402C4.78429 7.70709 8.38002 3.9496 13.0378 2.83149L13.0378 2.83149C13.983 2.60462 14.9764 2.48389 15.9999 2.48389C22.0454 2.48389 27.2156 6.76492 27.2156 12.3402C27.2156 12.9147 26.7499 13.3804 26.1754 13.3804C25.6009 13.3804 25.1351 12.9147 25.1351 12.3402C25.1351 8.18402 21.1865 4.56437 15.9999 4.56437Z" fill="black"/>
<path fill-rule="evenodd" clip-rule="evenodd" d="M14.1972 11.556C14.7545 11.7002 15.0893 12.2689 14.945 12.8262C14.6305 14.0414 13.9613 14.929 12.9992 15.4833C12.0767 16.0147 10.9752 16.1879 9.85719 16.1879C7.44764 16.1879 6.03747 17.03 5.19917 18.1123C4.32569 19.24 3.96509 20.7701 3.96509 22.2844C3.96509 25.0982 5.97809 27.8253 9.61714 27.8253C10.6795 27.8253 11.8255 27.588 12.9475 27.3203C13.1108 27.2814 13.276 27.2412 13.4406 27.2012C13.8201 27.1089 14.1961 27.0175 14.538 26.9436C15.0254 26.8384 15.5302 26.7486 15.9821 26.7408C15.9941 26.7406 16.006 26.7406 16.018 26.7408C16.4699 26.7486 16.9747 26.8384 17.4621 26.9436C17.804 27.0175 18.18 27.1089 18.5595 27.2012C18.724 27.2412 18.8893 27.2814 19.0526 27.3203C20.1746 27.588 21.3207 27.8253 22.383 27.8253C26.0221 27.8253 28.0349 25.0982 28.0349 22.2844C28.0349 20.8441 27.552 19.3034 26.5839 18.1411C25.6378 17.0054 24.1965 16.1879 22.1429 16.1879C21.025 16.1879 19.9234 16.0147 19.0009 15.4833C18.0388 14.929 17.3696 14.0414 17.0551 12.8262C16.9108 12.2689 17.2456 11.7002 17.8029 11.556C18.3602 11.4117 18.9289 11.7465 19.0732 12.3038C19.2589 13.0214 19.6026 13.4241 20.0415 13.6769C20.52 13.9526 21.2077 14.1032 22.1429 14.1032C24.8218 14.1032 26.8477 15.2006 28.1856 16.807C29.5015 18.3868 30.1196 20.4156 30.1196 22.2844C30.1196 26.0886 27.328 29.91 22.383 29.91C21.0525 29.91 19.6959 29.6169 18.569 29.3481C18.3829 29.3037 18.2053 29.2605 18.0347 29.219C17.6697 29.1302 17.3368 29.0493 17.022 28.9813C16.569 28.8834 16.236 28.8318 16.0001 28.8255C15.7641 28.8318 15.4312 28.8834 14.9781 28.9813C14.6633 29.0493 14.3304 29.1302 13.9653 29.219C13.7948 29.2605 13.6172 29.3037 13.4311 29.3481C12.3042 29.6169 10.9476 29.91 9.61714 29.91C4.67231 29.91 1.88046 26.0887 1.88046 22.2844C1.88046 20.4895 2.30061 18.4502 3.55111 16.8358C4.83678 15.1759 6.89382 14.1032 9.85719 14.1032C10.7925 14.1032 11.4802 13.9526 11.9586 13.6769C12.3975 13.4241 12.7412 13.0214 12.9269 12.3038C13.0712 11.7465 13.6399 11.4117 14.1972 11.556Z" fill="black"/>
<path fill-rule="evenodd" clip-rule="evenodd" d="M9.40536 10.4964C9.64386 10.0012 10.2355 9.52176 11.0394 9.23844C11.8143 8.96532 12.6101 8.93659 13.1992 9.11543" fill="white"/>
<path fill-rule="evenodd" clip-rule="evenodd" d="M11.4517 9.98249C10.9059 10.2243 10.5997 10.5708 10.5082 10.8233C10.3415 11.2831 9.76551 11.5688 9.22174 11.4615C8.67797 11.3542 8.3723 10.8945 8.53901 10.4348C8.82944 9.63372 9.60002 8.92057 10.5808 8.48604C11.5281 8.06631 12.596 7.93939 13.4878 8.16962C14.0195 8.30686 14.2867 8.78433 14.0846 9.23606C13.8826 9.6878 13.2878 9.94274 12.7562 9.8055C12.4627 9.72975 11.976 9.75022 11.4517 9.98249Z" fill="black"/>
<path fill-rule="evenodd" clip-rule="evenodd" d="M22.5947 10.4964C22.3562 10.0012 21.7645 9.52176 20.9606 9.23844C20.1857 8.96532 19.3899 8.93659 18.8009 9.11543" fill="white"/>
<path fill-rule="evenodd" clip-rule="evenodd" d="M20.5483 9.98249C21.0941 10.2243 21.4003 10.5708 21.4919 10.8233C21.6586 11.2831 22.2345 11.5688 22.7783 11.4615C23.3221 11.3542 23.6277 10.8945 23.461 10.4348C23.1706 9.63372 22.4 8.92057 21.4193 8.48604C20.4719 8.06631 19.4041 7.93939 18.5122 8.16962C17.9806 8.30686 17.7134 8.78433 17.9154 9.23606C18.1174 9.6878 18.7122 9.94274 19.2439 9.8055C19.5373 9.72975 20.0241 9.75022 20.5483 9.98249Z" fill="black"/>
<path fill-rule="evenodd" clip-rule="evenodd" d="M9.30372 19.2255C8.68989 19.2255 8.19228 19.7231 8.19228 20.3369C8.19228 20.9508 8.68989 21.4484 9.30372 21.4484C9.91755 21.4484 10.4152 20.9508 10.4152 20.3369C10.4152 19.7231 9.91755 19.2255 9.30372 19.2255ZM6.10765 20.3369C6.10765 18.5718 7.53858 17.1409 9.30372 17.1409C11.0689 17.1409 12.4998 18.5718 12.4998 20.3369C12.4998 22.1021 11.0689 23.533 9.30372 23.533C7.53858 23.533 6.10765 22.1021 6.10765 20.3369Z" fill="black"/>
<path fill-rule="evenodd" clip-rule="evenodd" d="M22.6964 19.2255C22.0825 19.2255 21.5849 19.7231 21.5849 20.3369C21.5849 20.9508 22.0825 21.4484 22.6964 21.4484C23.3102 21.4484 23.8078 20.9508 23.8078 20.3369C23.8078 19.7231 23.3102 19.2255 22.6964 19.2255ZM19.5003 20.3369C19.5003 18.5718 20.9312 17.1409 22.6964 17.1409C24.4615 17.1409 25.8924 18.5718 25.8924 20.3369C25.8924 22.1021 24.4615 23.533 22.6964 23.533C20.9312 23.533 19.5003 22.1021 19.5003 20.3369Z" fill="black"/>
</svg>
