<svg width="32" height="32" viewBox="0 0 32 32" fill="none" xmlns="http://www.w3.org/2000/svg">
<path d="M10.2885 17.67C10.2885 17.67 10.2885 20.0941 10.2885 5.45673C10.2885 3.92733 9.04863 2.6875 7.51923 2.6875C5.98983 2.6875 4.75 3.92733 4.75 5.45673V7.5625H10.2885" stroke="black" stroke-width="2" stroke-linecap="round" stroke-linejoin="round"/>
<path d="M10.2885 13.727C10.2885 13.727 10.2885 11.1862 10.2885 25.8235C10.2885 27.3529 11.5283 28.5928 13.0577 28.5928C14.5871 28.5928 15.8269 27.3529 15.8269 25.8235L15.8269 23.7178L29.9974 23.7178L29.9974 25.2341" stroke="black" stroke-width="2" stroke-linecap="round" stroke-linejoin="round"/>
<path d="M29.9974 24.9152L29.9974 25.8235C29.9974 27.3529 28.7576 28.5928 27.2282 28.5928L13.0036 28.5927" stroke="black" stroke-width="2"/>
<path d="M7.50001 2.6875C7.31251 2.6875 15.9539 2.6875 22.0192 2.6875C23.5486 2.6875 24.7885 3.92733 24.7885 5.45673C24.7885 20.0941 24.7885 22.4375 24.7885 22.4375C24.7885 22.8362 24.8039 23.2068 24.8357 23.5502" stroke="black" stroke-width="2" stroke-linecap="round" stroke-linejoin="round"/>
<path d="M21.5005 10.2537H14.0409" stroke="black" stroke-width="2" stroke-linecap="round"/>
<path d="M21.5005 13.8914H14.0409" stroke="black" stroke-width="2" stroke-linecap="round"/>
<path d="M21.5005 17.6211H14.0409" stroke="black" stroke-width="2" stroke-linecap="round"/>
</svg>
